<?xml version="1.0" encoding="utf-8"?>
<!-- Generator: Adobe Illustrator 23.0.0, SVG Export Plug-In . SVG Version: 6.00 Build 0)  -->
<svg version="1.1" id="Layer_1" xmlns="http://www.w3.org/2000/svg" xmlns:xlink="http://www.w3.org/1999/xlink" x="0px" y="0px"
	 viewBox="0 0 375.8 177.15" style="enable-background:new 0 0 375.8 177.15;" xml:space="preserve">
<style type="text/css">
	.st0{fill:#FF3B58;}
	.st1{fill:#3464DA;}
	.st2{fill:none;stroke:#FF3B58;stroke-width:1.2;stroke-linecap:round;stroke-miterlimit:10;}
	.st3{fill:none;stroke:#FF3B58;stroke-width:1.2;stroke-linecap:round;stroke-miterlimit:10;stroke-dasharray:8.008,8.008;}
	.st4{fill:none;stroke:#3464DA;stroke-linecap:round;stroke-miterlimit:10;}
	.st5{fill:none;stroke:#3464DA;stroke-linecap:round;stroke-miterlimit:10;stroke-dasharray:8.1035,8.1035;}
	.st6{fill:url(#SVGID_1_);}
	.st7{fill:url(#SVGID_2_);}
	.st8{fill:url(#SVGID_3_);}
	.st9{fill:url(#SVGID_4_);}
	.st10{fill:url(#SVGID_5_);}
	.st11{fill:url(#SVGID_6_);}
	.st12{fill:url(#SVGID_7_);}
	.st13{fill:url(#SVGID_8_);}
	.st14{fill:url(#SVGID_9_);}
	.st15{fill:url(#SVGID_10_);}
	.st16{fill:url(#SVGID_11_);}
</style>
<g id="BrightHeart">
</g>
<g id="RoseHeart">
</g>
<path class="st0" d="M87.94,20.1c0,0,1.71-8.22-3.03-13.65c-5.93-6.8-14.78-6.72-20.31-2.02c-5.47,4.65-6.63,12.77-6.98,18.75
	c-0.47,8.13,0.94,18.37,2.29,23.85c5.42,1.56,15.6,3.38,23.74,3.24c5.99-0.11,14.15-0.95,19.01-6.23
	c4.93-5.34,5.35-14.18-1.21-20.37C96.22,18.72,87.94,20.1,87.94,20.1z"/>
<path class="st1" d="M26.94,17.38c0,0-6.2-5.67-13.28-4.37C4.79,14.64,0.33,22.28,1.55,29.44c1.21,7.08,7.59,12.22,12.56,15.58
	c6.75,4.55,16.28,8.57,21.68,10.21c4.11-3.86,10.88-11.68,14.91-18.76c2.97-5.2,6.41-12.64,4.36-19.53
	C52.98,9.99,45.6,5.11,36.93,7.58C29.99,9.56,26.94,17.38,26.94,17.38z"/>
<g>
	<g>
		<path class="st2" d="M60.36,46.5c0,0-1.11,0.96-2.94,2.71"/>
		<path class="st3" d="M51.75,54.86c-23.34,24.4-76.39,93.78,75.75,93.32c60.76-1.21,55.21-26.61,43.22-32.22
			c-30.33-12.85-39.31,38.39,27.9,48.79c56.42,8.73,140.77-14.13,166.4-21.7"/>
		<path class="st2" d="M368.86,141.9c2.48-0.75,3.82-1.18,3.82-1.18"/>
	</g>
</g>
<g>
	<g>
		<path class="st4" d="M35.46,54.82c0,0,1.14,0.87,2.78,2.86"/>
		<path class="st5" d="M42.69,64.44c5.33,10.08,10.74,29.01,5.08,61.15c-9.53,54.06,41.14,48.58,50.06,47.72
			c8.92-0.87,177.84-39.59,198.95-40.85c18.2-1.08,57.3-2.64,63.56,11.12"/>
		<path class="st4" d="M361.19,147.51c0.01,1.22-0.18,2.53-0.6,3.94"/>
	</g>
</g>
<g>
	<g>
		<linearGradient id="SVGID_1_" gradientUnits="userSpaceOnUse" x1="60.2741" y1="86.7346" x2="368.6207" y2="86.7346">
			<stop  offset="0" style="stop-color:#FF3B58"/>
			<stop  offset="1" style="stop-color:#3464DA"/>
		</linearGradient>
		<path class="st6" d="M98.31,63.22c-0.44,4.62-1.28,11.5-2.54,20.63c-0.78,4.33-1.67,7.71-2.68,10.16
			c-3.78,9.11-9.82,13.66-18.13,13.66c-4.26,0-7.77-1.36-10.54-4.07c-2.77-2.71-4.15-6.18-4.15-10.42c0-2.81,0.65-5.25,1.96-7.31
			c1.3-2.06,2.62-3.09,3.95-3.09c0.64,0,0.96,0.27,0.96,0.82c0,0.62-0.58,0.93-1.75,0.93c-2.61,1.83-3.91,4.55-3.91,8.17
			c0,3.75,1.38,6.69,4.15,8.82c2.52,1.95,5.7,2.92,9.54,2.92c14.35,0,21.52-14.46,21.52-43.39c0-1.58-0.06-2.6-0.17-3.06
			c-0.09-0.37-0.14-0.62-0.14-0.76c0-0.78,0.59-1.17,1.79-1.17c0.89,0,2,0.33,3.33,1c1.46,0.76,2.2,1.48,2.2,2.16
			c0,0.23-0.14,0.5-0.41,0.82v1.27c0,3.82,0.3,7.87,0.89,12.15c0.57,4.1,1.43,8.57,2.58,13.42c1.37,5.84,2.7,10.09,3.98,12.77
			c1.19,2.52,2.39,3.78,3.6,3.78c1.92,0,2.88-2.86,2.88-8.58c0-3.36-0.13-7.39-0.39-12.07c-0.26-4.68-0.39-7.59-0.39-8.74
			c0-5.47,0.61-10.19,1.84-14.16c1.22-3.97,2.49-5.96,3.79-5.96c0.8,0,1.2,0.33,1.2,1c0,0.48-0.43,0.79-1.3,0.93
			c-1.42,0.89-2.33,2.98-2.75,6.25c-0.16,1.35-0.24,3.77-0.24,7.24c0,2.2,0.13,5.5,0.38,9.9c0.25,4.41,0.38,7.71,0.38,9.9
			c0,10.32-1.9,15.48-5.7,15.48c-3.57,0-6.87-3.86-9.9-11.57C101.1,85.37,99.16,75.42,98.31,63.22z"/>
		<linearGradient id="SVGID_2_" gradientUnits="userSpaceOnUse" x1="60.2741" y1="86.7346" x2="368.6207" y2="86.7346">
			<stop  offset="0" style="stop-color:#FF3B58"/>
			<stop  offset="1" style="stop-color:#3464DA"/>
		</linearGradient>
		<path class="st7" d="M139.85,77.91c0.62-0.14,1.02-0.21,1.2-0.21c1.99,0,3.49,1.75,4.5,5.25c0.71,2.45,1.06,5.01,1.06,7.69
			c0,10.18-3.63,15.28-10.88,15.28c-3.43,0-6.04-1.29-7.83-3.88c-1.53-2.22-2.3-5.13-2.3-8.72c0-3.73,0.62-7.14,1.85-10.23
			c1.44-3.62,3.56-6.29,6.35-8.03h0.58C136.13,75.06,137.95,76.01,139.85,77.91z M136.42,66.1c-2.29,4.19-4.44,6.28-6.45,6.28
			c-0.85,0-1.27-0.29-1.27-0.86c0-0.25,0.81-1.21,2.44-2.88c1.12-1.14,2.14-2.39,3.05-3.74c0.27-0.48,0.71-1.16,1.3-2.03
			c0.27-0.32,0.67-0.48,1.2-0.48c0.37,0,0.7,0.11,1,0.34c1.19,2.33,2.59,4.26,4.19,5.77c1.6,1.51,2.4,2.33,2.4,2.47
			c0,0.8-0.54,1.2-1.61,1.2C140.74,72.18,138.66,70.15,136.42,66.1z M139.51,79.53c-0.69-0.64-1.43-0.96-2.23-0.96
			c-1.83,0-3.53,1.58-5.1,4.74c-1.57,3.16-2.35,6.88-2.35,11.16c0,6.8,2.11,10.2,6.32,10.2c5.24,0,7.86-4.04,7.86-12.12
			c0-3.5-0.43-6.57-1.29-9.2c-0.86-2.63-1.69-3.95-2.49-3.95C140.11,79.39,139.87,79.43,139.51,79.53z M130.55,60.82
			c0-0.48,0.49-0.97,1.48-1.48c1.14-0.59,2.04-1.13,2.68-1.61c0.85-0.62,1.79-1.53,2.81-2.75c1.03-1.21,1.88-1.82,2.54-1.82
			c1.12,0,1.68,0.54,1.68,1.61c0,0.94-1.32,2.3-3.96,4.09s-4.77,2.68-6.37,2.68C130.83,61.54,130.55,61.3,130.55,60.82z"/>
		<linearGradient id="SVGID_3_" gradientUnits="userSpaceOnUse" x1="60.2741" y1="86.7346" x2="368.6207" y2="86.7346">
			<stop  offset="0" style="stop-color:#FF3B58"/>
			<stop  offset="1" style="stop-color:#3464DA"/>
		</linearGradient>
		<path class="st8" d="M157.94,82.65c-1.19,5.61-1.79,10.53-1.79,14.76c0,4.53,1.13,6.8,3.4,6.8c0.98,0,1.88-0.32,2.68-0.96
			c0-0.89,0.25-1.34,0.75-1.34c0.53,0,0.79,0.33,0.79,1c0,1.49-1.5,2.23-4.5,2.23c-4.6,0-6.9-3.28-6.9-9.85
			c0-1.12,0.26-4.02,0.79-8.69l0.55-4.87c-0.39-0.3-0.58-0.65-0.58-1.06c0-0.89,0.82-1.34,2.47-1.34c0.62,0,1.26,0.22,1.94,0.65
			c0.67,0.44,1.01,0.95,1.01,1.54C158.56,81.91,158.35,82.28,157.94,82.65z M156.26,76.02c-2.31,0-3.47-0.85-3.47-2.54
			c0-0.8,0.35-1.44,1.06-1.92c0.64-0.43,1.38-0.65,2.23-0.65c2.36,0,3.54,0.86,3.54,2.57c0,0.78-0.38,1.41-1.13,1.89
			C157.83,75.81,157.08,76.02,156.26,76.02z"/>
		<linearGradient id="SVGID_4_" gradientUnits="userSpaceOnUse" x1="60.2741" y1="86.7346" x2="368.6207" y2="86.7346">
			<stop  offset="0" style="stop-color:#FF3B58"/>
			<stop  offset="1" style="stop-color:#3464DA"/>
		</linearGradient>
		<path class="st9" d="M195.38,103.66c-0.8,0.66-1.68,1-2.64,1c-0.69,0-1.33-0.16-1.92-0.48c-0.73-0.39-1.1-0.9-1.1-1.54
			c0-0.21,0.02-0.53,0.07-0.98s0.07-0.78,0.07-1.01c0-0.5-0.02-1.26-0.07-2.28s-0.07-1.78-0.07-2.28c0-6.91,0.61-15.64,1.82-26.19
			c0.18-1.6,0.43-4.02,0.75-7.24c0.41-0.78,1.1-1.17,2.06-1.17c1.3,0,2.43,0.54,3.36,1.61v0.58c-0.98,1.14-1.74,5.32-2.27,12.53
			c-0.37,5.04-0.55,9.74-0.55,14.11c0,4.05,0.24,7.76,0.72,11.12c0.3-0.11,0.5-0.17,0.62-0.17c0.41,0,0.71,0.17,0.89,0.5
			c0.18,0.33,0.35,0.66,0.51,0.98c1.05,1.42,3,2.13,5.84,2.13c4.26,0,7.84-1.92,10.75-5.75c2.91-3.83,4.36-8.69,4.36-14.57
			c0-8.1-2.49-14.48-7.48-19.12c-4.88-4.51-11.4-6.76-19.57-6.76c-7.28,0-13.34,1.69-18.2,5.06c-4.85,3.38-7.28,7.52-7.28,12.44
			c0,3.62,1.36,6.41,4.08,8.38c2.4,1.74,5.48,2.61,9.23,2.61c2.08,0,3.9-0.58,5.46-1.75c0.66,0,1,0.3,1,0.89
			c0,1.17-0.86,2.04-2.57,2.61c-1.21,0.41-2.59,0.62-4.12,0.62c-4.14,0-7.58-1.13-10.3-3.4c-2.88-2.43-4.33-5.68-4.33-9.75
			c0-4.42,1.75-8.39,5.25-11.91c2.95-2.98,6.75-5.3,11.4-6.97c4.07-1.46,8.42-2.2,13.05-2.2c4.1,0,7.86,0.61,11.29,1.82
			c5.49,1.95,9.89,5.25,13.2,9.92c3.31,4.67,4.96,9.92,4.96,15.76c0,3.82-0.78,7.35-2.33,10.57c-1.76,3.62-4.27,6.63-7.54,9.03
			c-3.52,2.59-7.17,3.88-10.96,3.88C199.7,106.27,197.21,105.4,195.38,103.66z"/>
		<linearGradient id="SVGID_5_" gradientUnits="userSpaceOnUse" x1="60.2741" y1="86.7346" x2="368.6207" y2="86.7346">
			<stop  offset="0" style="stop-color:#FF3B58"/>
			<stop  offset="1" style="stop-color:#3464DA"/>
		</linearGradient>
		<path class="st10" d="M239.71,95.66c-1.35,5.52-3.34,8.27-5.97,8.27c-2.06,0-3.55-1.33-4.46-3.98c-0.64-1.85-0.96-4.08-0.96-6.69
			c0-1.85,0.14-4.04,0.43-6.57c0.29-2.53,0.43-4.09,0.43-4.69c0-0.27-0.02-0.67-0.07-1.2s-0.07-0.92-0.07-1.17
			c0-0.8,0.65-1.2,1.96-1.2c0.57,0,1.17,0.19,1.8,0.58s0.94,0.85,0.94,1.37c-1.26,2.29-1.89,7.03-1.89,14.21
			c0,5.29,0.84,7.93,2.51,7.93c1.97,0,3.51-3.18,4.63-9.54c0.76-4.42,1.13-8.44,1.13-12.08c0-0.21-0.03-0.54-0.1-1.01
			s-0.1-0.83-0.1-1.08c0.32-0.59,1.12-0.89,2.4-0.89c0.46,0,0.95,0.22,1.48,0.67c0.53,0.45,0.75,0.89,0.69,1.32l-0.07,0.48
			c-0.57,0.18-1.04,2.54-1.41,7.07c-0.27,3.34-0.41,6.05-0.41,8.14c0,4.17,0.65,6.25,1.96,6.25c0.16,0,0.33-0.2,0.51-0.6
			c0.18-0.4,0.39-0.6,0.62-0.6c0.43,0,0.65,0.23,0.65,0.69c0,1.19-0.75,1.79-2.27,1.79C241.46,103.11,240.01,100.63,239.71,95.66z"
			/>
		<linearGradient id="SVGID_6_" gradientUnits="userSpaceOnUse" x1="60.2741" y1="86.7346" x2="368.6207" y2="86.7346">
			<stop  offset="0" style="stop-color:#FF3B58"/>
			<stop  offset="1" style="stop-color:#3464DA"/>
		</linearGradient>
		<path class="st11" d="M262.06,94.6c-1.58,5.68-3.76,8.51-6.56,8.51c-1.49,0-2.83-1.03-4.03-3.09c-1.2-2.06-1.8-4.55-1.8-7.48
			c0-2.08,0.14-4.46,0.43-7.12c0.29-2.67,0.43-4.23,0.43-4.69c0-0.73-0.16-1.44-0.48-2.13c0.11-0.82,0.74-1.24,1.89-1.24
			c1.74,0,2.61,0.71,2.61,2.13c-0.3,0.02-0.59,1.44-0.89,4.24c-0.3,2.8-0.45,6.19-0.45,10.14c0,5.17,1.1,7.76,3.3,7.76
			c2.29,0,3.9-3.07,4.84-9.2c0.53-3.5,0.79-7.4,0.79-11.71c0-1.03-0.02-1.81-0.07-2.33c-0.02-0.11-0.08-0.37-0.17-0.76
			c-0.07-0.32-0.1-0.56-0.1-0.72c0-0.69,0.77-1.03,2.3-1.03c1.46,0,2.2,0.47,2.2,1.41c0-0.14-0.09,0.21-0.27,1.03
			c-0.62,2.77-0.93,6.25-0.93,10.44c0,3.62,0.25,7.7,0.74,12.24c0.49,4.54,0.74,7.21,0.74,8.02c0,3.25-0.81,5.89-2.44,7.93
			c-1.79,2.24-4.26,3.36-7.42,3.36c-1.85,0-3.56-0.47-5.12-1.41c-1.79-1.1-2.68-2.52-2.68-4.26c0-0.62,0.23-0.93,0.69-0.93
			c0.3,0,0.45,0.48,0.45,1.44c0,0.96,0.77,1.72,2.3,2.27c1.17,0.43,2.35,0.65,3.54,0.65c2.4,0,4.25-0.93,5.53-2.78
			c1.1-1.63,1.65-3.7,1.65-6.21c0-1.6-0.17-4-0.5-7.19c-0.33-3.19-0.5-5.59-0.5-7.19V94.6z"/>
		<linearGradient id="SVGID_7_" gradientUnits="userSpaceOnUse" x1="60.2741" y1="86.7346" x2="368.6207" y2="86.7346">
			<stop  offset="0" style="stop-color:#FF3B58"/>
			<stop  offset="1" style="stop-color:#3464DA"/>
		</linearGradient>
		<path class="st12" d="M275.28,93.53v1.96c0,5.68,1.82,8.51,5.46,8.51c1.67,0,3.06-0.55,4.15-1.65c1.3-1.3,1.96-2.8,1.96-4.5
			c0-0.09-0.02-0.22-0.07-0.39s-0.07-0.3-0.07-0.4c0-0.62,0.31-0.93,0.93-0.93c0.75,0,1.13,0.45,1.13,1.34
			c0,2.01-0.82,3.81-2.47,5.37s-3.48,2.35-5.49,2.35c-3.18,0-5.67-1.56-7.45-4.67c-1.49-2.59-2.23-5.6-2.23-9.03
			c0-2.93,0.54-5.86,1.61-8.79c1.14-3.16,2.71-5.66,4.7-7.52c0.94-0.34,1.69-0.52,2.27-0.52c0.73,0,1.76,0.45,3.09,1.34
			c3.41,0.62,5.12,3.08,5.12,7.38c0,2.7-0.82,5.21-2.47,7.52c-1.83,2.54-4.05,3.81-6.66,3.81
			C277.41,94.73,276.24,94.33,275.28,93.53z M280.87,66.1c-2.29,4.19-4.44,6.28-6.45,6.28c-0.85,0-1.27-0.29-1.27-0.86
			c0-0.25,0.81-1.21,2.44-2.88c1.12-1.14,2.14-2.39,3.06-3.74c0.27-0.48,0.71-1.16,1.3-2.03c0.27-0.32,0.67-0.48,1.2-0.48
			c0.37,0,0.7,0.11,1,0.34c1.19,2.33,2.59,4.26,4.19,5.77c1.6,1.51,2.4,2.33,2.4,2.47c0,0.8-0.54,1.2-1.61,1.2
			C285.2,72.18,283.12,70.15,280.87,66.1z M275.42,90.79c0.14,0,0.5,0.45,1.08,1.34c0.58,0.89,1.5,1.34,2.76,1.34
			c2.17,0,3.86-1.22,5.05-3.67c0.92-1.9,1.37-4.07,1.37-6.52c0-3.89-1.2-5.84-3.6-5.84C278.85,77.43,276.63,81.88,275.42,90.79z"/>
		<linearGradient id="SVGID_8_" gradientUnits="userSpaceOnUse" x1="60.2741" y1="86.7346" x2="368.6207" y2="86.7346">
			<stop  offset="0" style="stop-color:#FF3B58"/>
			<stop  offset="1" style="stop-color:#3464DA"/>
		</linearGradient>
		<path class="st13" d="M299.34,77.4c-1.76,6.29-2.64,13.57-2.64,21.83c0,0.94,0.23,1.41,0.69,1.41c0.23,0,0.49-1.13,0.79-3.4
			c1.74-12.93,4.13-19.4,7.17-19.4c1.21,0,2.08,0.65,2.59,1.94s0.77,5.74,0.77,13.34c0,2.84,0.13,4.96,0.38,6.35
			c0.28,1.49,0.64,2.23,1.1,2.23c0.11,0,0.29-0.05,0.52-0.14c0.23-0.09,0.41-0.14,0.55-0.14c0.27,0,0.41,0.14,0.41,0.41
			c0,0.55-0.49,0.82-1.48,0.82c-1.95,0-3.38-1.24-4.29-3.71c-0.62-1.74-0.93-3.8-0.93-6.18c0-0.89,0.03-2.23,0.09-4.02
			c0.06-1.79,0.09-3.12,0.09-4.02c0-2.91-0.4-4.36-1.2-4.36c-0.59,0-1.28,1.24-2.06,3.71c-1.08,3.27-1.98,8.06-2.71,14.35
			c-0.48,4.1-1.45,6.14-2.92,6.14c-1.97,0-2.95-1.92-2.95-5.77c0-3.41,0.33-7.44,1-12.08s1-7.39,1-8.24c0-0.23-0.07-0.78-0.21-1.65
			l0.14-0.55c0.59-0.37,1.2-0.55,1.82-0.55C298.46,75.75,299.23,76.3,299.34,77.4z"/>
		<linearGradient id="SVGID_9_" gradientUnits="userSpaceOnUse" x1="60.2741" y1="86.7346" x2="368.6207" y2="86.7346">
			<stop  offset="0" style="stop-color:#FF3B58"/>
			<stop  offset="1" style="stop-color:#3464DA"/>
		</linearGradient>
		<path class="st14" d="M320.52,103.59c-2.31,0-3.47-1.01-3.47-3.02c0-2.06,1.13-3.09,3.4-3.09c2.56,0,3.84,1.03,3.84,3.09
			C324.3,102.58,323.04,103.59,320.52,103.59z"/>
		<linearGradient id="SVGID_10_" gradientUnits="userSpaceOnUse" x1="60.2741" y1="86.7346" x2="368.6207" y2="86.7346">
			<stop  offset="0" style="stop-color:#FF3B58"/>
			<stop  offset="1" style="stop-color:#3464DA"/>
		</linearGradient>
		<path class="st15" d="M330.72,77.36c0.07-0.85,0.77-1.27,2.09-1.27c1.21,0,2.2,0.35,2.95,1.06l0.07,0.62
			c-0.5,0.85-0.75,3.12-0.75,6.83c0,9.61,1.14,14.42,3.43,14.42c1.3,0,2.7-2.52,4.17-7.55c1.48-5.03,2.21-10.39,2.21-16.07
			c0-1.19-0.23-2.36-0.69-3.5c-0.09-0.23-0.14-0.38-0.14-0.45c0-0.62,0.31-0.93,0.93-0.93c0.92,0,1.37,1.38,1.37,4.15
			c0,3.66-0.53,8.19-1.58,13.59c-1.24,6.27-2.67,10.46-4.29,12.56c-0.96,1.26-2.03,1.89-3.19,1.89c-1.72,0-3.06-1.16-4.03-3.48
			c-0.97-2.32-1.55-5.81-1.73-10.45c-0.02-1.97-0.06-3.94-0.1-5.9C331.35,80.03,331.11,78.19,330.72,77.36z"/>
		<linearGradient id="SVGID_11_" gradientUnits="userSpaceOnUse" x1="60.2741" y1="86.7346" x2="368.6207" y2="86.7346">
			<stop  offset="0" style="stop-color:#FF3B58"/>
			<stop  offset="1" style="stop-color:#3464DA"/>
		</linearGradient>
		<path class="st16" d="M356.3,77.4c-1.76,6.29-2.64,13.57-2.64,21.83c0,0.94,0.23,1.41,0.69,1.41c0.23,0,0.49-1.13,0.79-3.4
			c1.74-12.93,4.13-19.4,7.17-19.4c1.21,0,2.08,0.65,2.59,1.94s0.77,5.74,0.77,13.34c0,2.84,0.13,4.96,0.38,6.35
			c0.28,1.49,0.64,2.23,1.1,2.23c0.11,0,0.29-0.05,0.52-0.14c0.23-0.09,0.41-0.14,0.55-0.14c0.27,0,0.41,0.14,0.41,0.41
			c0,0.55-0.49,0.82-1.48,0.82c-1.95,0-3.38-1.24-4.29-3.71c-0.62-1.74-0.93-3.8-0.93-6.18c0-0.89,0.03-2.23,0.09-4.02
			c0.06-1.79,0.09-3.12,0.09-4.02c0-2.91-0.4-4.36-1.2-4.36c-0.59,0-1.28,1.24-2.06,3.71c-1.08,3.27-1.98,8.06-2.71,14.35
			c-0.48,4.1-1.45,6.14-2.92,6.14c-1.97,0-2.95-1.92-2.95-5.77c0-3.41,0.33-7.44,1-12.08s1-7.39,1-8.24c0-0.23-0.07-0.78-0.21-1.65
			l0.14-0.55c0.59-0.37,1.2-0.55,1.82-0.55C355.41,75.75,356.18,76.3,356.3,77.4z"/>
	</g>
</g>
</svg>
